<?xml version="1.0" standalone="no"?>
<!DOCTYPE svg PUBLIC "-//W3C//DTD SVG 20010904//EN"
 "http://www.w3.org/TR/2001/REC-SVG-20010904/DTD/svg10.dtd">
<svg version="1.0" xmlns="http://www.w3.org/2000/svg"
 width="300.000000pt" height="301.000000pt" viewBox="0 0 300.000000 301.000000"
 preserveAspectRatio="xMidYMid meet">
<metadata>
Created by potrace 1.15, written by Peter Selinger 2001-2017
</metadata>
<g transform="translate(0.000000,301.000000) scale(0.100000,-0.100000)"
fill="#000000" stroke="none">
<path d="M1818 2476 c-93 -34 -128 -86 -128 -191 0 -52 -4 -69 -20 -85 l-20
-20 25 -26 c14 -14 25 -27 25 -29 0 -2 -19 5 -42 15 -49 22 -119 26 -151 8
l-22 -12 25 -7 c14 -4 -9 -5 -50 -2 -129 9 -258 -31 -314 -97 -14 -17 -26 -42
-26 -55 0 -13 -4 -27 -10 -30 -5 -3 -10 1 -10 9 0 21 -15 20 -66 -4 -114 -56
-214 -238 -214 -391 0 -38 -13 -77 -30 -89 -21 -15 -40 -75 -40 -128 0 -63 10
-79 47 -76 42 3 52 13 59 61 9 64 12 67 34 41 25 -30 25 -7 0 42 -26 52 -26
59 14 145 45 98 76 136 152 190 35 25 68 54 74 65 5 10 24 21 42 25 76 15 162
49 203 80 46 36 55 32 55 -21 0 -38 18 -64 53 -79 31 -14 31 -14 6 -15 -34 0
-66 36 -77 85 l-8 39 -27 -46 c-30 -52 -57 -145 -57 -198 0 -19 11 -66 25
-105 13 -38 20 -73 17 -76 -4 -4 -25 -12 -47 -19 -87 -27 -163 -88 -186 -149
-6 -13 -10 -49 -10 -78 -1 -50 -4 -58 -44 -97 -54 -54 -91 -118 -131 -226
l-33 -85 -73 -1 c-125 -2 -278 -65 -278 -113 0 -25 21 -33 100 -41 l65 -7 -63
-1 c-40 -1 -74 4 -92 13 -30 15 -39 38 -20 50 18 11 11 26 -8 16 -27 -14 -166
-41 -214 -41 -58 0 -115 -17 -122 -36 -3 -8 6 -41 20 -72 14 -31 36 -99 47
-150 17 -74 25 -92 39 -92 16 0 18 10 18 83 0 58 5 92 18 117 l17 35 220 6
c274 8 341 21 477 90 146 74 212 121 303 213 61 62 91 102 124 167 42 85 43
89 45 190 0 57 -2 116 -7 132 -9 32 14 47 44 29 10 -7 27 -12 38 -12 22 0 56
-56 40 -66 -6 -4 -6 -11 1 -19 9 -10 7 -16 -9 -24 -25 -14 -31 -14 -31 -1 0 6
7 10 16 10 13 0 14 3 4 15 -6 8 -9 19 -6 24 4 5 2 12 -4 16 -6 4 -8 11 -5 16
4 5 -2 12 -12 15 -10 3 -26 10 -36 15 -26 14 -28 9 -17 -32 6 -18 10 -48 10
-66 0 -20 7 -36 18 -42 16 -10 16 -10 0 -11 -11 0 -18 -8 -18 -19 0 -15 8 -21
38 -24 l37 -4 -42 -1 c-30 -1 -43 -6 -43 -16 0 -8 -3 -21 -6 -30 -4 -11 5 -18
37 -26 75 -21 184 3 347 75 l77 34 6 -72 c3 -40 6 -66 7 -59 4 23 22 12 22
-13 0 -42 27 -95 48 -95 35 0 44 25 40 105 -3 73 4 97 16 53 13 -51 6 -125
-15 -152 -24 -30 -45 -33 -72 -9 -16 15 -14 8 7 -32 15 -27 41 -72 57 -100 26
-43 30 -46 25 -20 -3 17 -8 40 -12 52 -4 13 -2 23 4 23 20 0 43 -139 45 -280
2 -83 3 -85 30 -94 20 -7 47 -5 101 8 55 14 91 17 140 12 53 -5 66 -4 66 7 0
26 -27 38 -115 52 -142 23 -140 19 -140 305 0 187 -3 236 -19 290 -24 86 -45
120 -73 120 -13 0 -23 5 -23 10 0 6 10 10 21 10 21 0 20 1 -5 21 -14 11 -34
19 -43 18 -10 -1 -36 6 -58 16 -58 26 -250 33 -308 11 -57 -21 -101 -10 -105
27 -5 40 67 183 122 244 26 29 74 70 107 91 l60 40 50 -33 c62 -42 202 -85
214 -65 3 5 11 10 16 10 6 0 7 -5 3 -11 -3 -6 0 -15 7 -20 21 -13 29 -11 29 7
0 9 6 14 13 11 19 -7 94 35 188 105 106 79 141 95 175 79 35 -15 60 -15 46 2
-6 6 -11 15 -11 20 -1 4 -1 8 -2 10 -1 1 -2 19 -3 40 -2 32 1 38 21 43 13 4
27 4 30 0 4 -3 -3 -6 -15 -6 -12 0 -22 -4 -22 -10 0 -5 4 -10 10 -10 12 0 9
-22 -5 -33 -7 -6 -6 -10 2 -13 7 -3 10 -11 7 -18 -5 -13 43 -32 54 -22 2 3 6
25 8 48 3 48 -14 71 -66 90 -36 12 -75 -8 -90 -46 -7 -18 -19 -25 -57 -31
-122 -18 -294 -92 -302 -130 -5 -27 -19 -35 -61 -35 -39 0 -161 58 -168 80 -3
9 7 6 29 -9 48 -32 98 -53 140 -58 33 -5 37 -3 43 22 11 45 -30 77 -116 89
-37 6 -52 14 -68 37 -25 34 -52 51 -99 58 -19 3 -39 15 -45 25 -6 10 -30 36
-53 58 -22 21 -44 51 -48 65 l-6 26 -19 -31 c-11 -18 -24 -32 -30 -32 -6 0 3
20 20 44 18 26 26 47 20 51 -12 7 -13 75 -1 93 5 8 17 11 32 7 18 -4 30 0 44
15 10 11 41 27 68 35 59 18 77 19 77 5 0 -5 -13 -10 -29 -10 -41 0 -81 -17
-113 -47 l-27 -26 19 -27 c29 -40 93 -81 126 -79 16 0 39 -2 52 -6 19 -6 22
-4 22 19 0 15 -5 36 -11 47 -6 11 -14 42 -18 69 -7 43 -6 50 10 55 20 7 35 43
22 55 -8 8 -48 14 -153 25 -26 3 -61 -1 -82 -9z m-139 -457 c29 -10 33 -9 52
15 11 14 25 26 31 26 7 0 1 -11 -11 -24 -13 -14 -20 -29 -17 -34 8 -14 88 -32
141 -32 28 0 44 -4 40 -10 -9 -15 -61 -11 -137 9 l-68 17 -35 -67 -35 -67 31
-31 c28 -29 58 -43 44 -22 -9 16 15 24 30 11 24 -20 17 -30 -19 -30 -23 0 -45
9 -65 26 l-31 26 -16 -39 c-9 -21 -22 -52 -29 -69 -11 -27 -11 -34 3 -49 16
-17 16 -17 -1 -12 -18 7 -23 -1 -29 -38 -2 -16 2 -20 22 -18 25 2 25 2 -2 -9
-39 -16 -36 -45 5 -58 l32 -10 -32 3 c-22 3 -33 -1 -33 -10 0 -7 -4 -13 -10
-13 -5 0 -10 9 -10 19 0 14 -8 21 -27 23 -14 2 -28 10 -31 18 -4 12 -2 13 9 3
29 -28 45 -15 58 50 7 34 28 99 47 145 39 95 40 101 17 80 -10 -8 -25 -18 -33
-23 -8 -4 -1 4 15 19 17 14 33 25 37 26 7 0 68 106 68 119 0 5 -14 14 -30 21
-38 16 -80 48 -80 61 0 6 15 -1 33 -15 19 -14 48 -31 66 -37z"/>
<path d="M1790 2299 c0 -36 2 -40 15 -29 21 17 29 6 15 -20 -20 -37 -2 -75 61
-132 64 -57 95 -70 140 -61 16 3 29 7 29 8 0 1 -15 19 -34 39 -31 32 -45 76
-24 76 4 0 8 5 8 10 0 6 -10 10 -23 10 -43 0 -167 97 -167 131 0 5 -4 9 -10 9
-5 0 -10 -19 -10 -41z"/>
</g>
</svg>
